<svg xmlns="http://www.w3.org/2000/svg" width="34.003" height="30" viewBox="0 0 34.003 30">
  <g id="Icon" transform="translate(-832 -1196)">
    <path id="Path_49" data-name="Path 49" d="M866.228,330.5a.562.562,0,0,1-.363-.134l-3.633-3.094a.562.562,0,0,1,0-.855l3.633-3.093a.561.561,0,1,1,.728.854l-3.13,2.666,3.13,2.666a.561.561,0,0,1-.364.989Zm0,0" transform="translate(-20.813 887.324)" fill="#ee9812"/>
    <path id="Path_50" data-name="Path 50" d="M880.6,330.5a.561.561,0,0,1-.364-.989l3.13-2.666-3.13-2.666a.561.561,0,1,1,.728-.854l3.632,3.093a.562.562,0,0,1,0,.855l-3.632,3.094a.562.562,0,0,1-.364.134Zm0,0" transform="translate(-28.014 887.324)" fill="#ee9812"/>
    <path id="Path_51" data-name="Path 51" d="M872.482,331.325a.549.549,0,0,1-.116-.013.561.561,0,0,1-.434-.665L874.2,319.9a.561.561,0,1,1,1.1.232l-2.264,10.749a.562.562,0,0,1-.548.446Zm0,0" transform="translate(-24.766 888.819)" fill="#ee9812"/>
    <path id="Path_52" data-name="Path 52" d="M876.9,329H850.433a3.774,3.774,0,0,1-3.769-3.769V302.769A3.774,3.774,0,0,1,850.433,299H876.9a3.774,3.774,0,0,1,3.769,3.769v22.462A3.774,3.774,0,0,1,876.9,329Zm-26.465-28.877a2.65,2.65,0,0,0-2.647,2.647v22.462a2.65,2.65,0,0,0,2.647,2.647H876.9a2.65,2.65,0,0,0,2.647-2.647V302.769a2.65,2.65,0,0,0-2.647-2.647Zm0,0" transform="translate(-14.664 897)" fill="#ee9812"/>
    <path id="Path_53" data-name="Path 53" d="M880.106,313.234h-32.88a.561.561,0,1,1,0-1.123h32.88a.561.561,0,1,1,0,1.123Zm0,0" transform="translate(-14.664 891.756)" fill="#ee9812"/>
    <path id="Path_54" data-name="Path 54" d="M861.466,307.136a1.777,1.777,0,1,1,1.777-1.777,1.779,1.779,0,0,1-1.777,1.777Zm0-2.431a.654.654,0,1,0,.654.654.655.655,0,0,0-.654-.654Zm0,0" transform="translate(-19.874 895.167)" fill="#ee9812"/>
    <path id="Path_55" data-name="Path 55" d="M852.369,307.107a1.777,1.777,0,1,1,1.777-1.777,1.778,1.778,0,0,1-1.777,1.777Zm0-2.43a.654.654,0,1,0,.654.653.655.655,0,0,0-.654-.653Zm0,0" transform="translate(-16.235 895.178)" fill="#ee9812"/>
    <path id="Path_56" data-name="Path 56" d="M870.563,307.165a1.776,1.776,0,1,1,1.777-1.777,1.778,1.778,0,0,1-1.777,1.777Zm0-2.431a.654.654,0,1,0,.654.654.655.655,0,0,0-.654-.654Zm0,0" transform="translate(-23.513 895.155)" fill="#ee9812"/>
  </g>
</svg>
