<svg xmlns="http://www.w3.org/2000/svg" width="30" height="15.6" viewBox="0 0 30 15.6">
  <path id="Icon_map-finance" data-name="Icon map-finance" d="M25.8,8.64H0v15.6H30V8.64Zm3,11.563a4.02,4.02,0,0,0-2.837,2.837H4.037A4.022,4.022,0,0,0,1.2,20.2V12.677A4.022,4.022,0,0,0,4.037,9.84H25.976A4.2,4.2,0,0,0,28.8,12.664V20.2Zm-12.53-2.53c-.138-.084-.07-.161-.67-.233v1.738l.329-.061a.874.874,0,0,0,.668-.871A.642.642,0,0,0,16.27,17.673Zm-2.7-2.836a.644.644,0,0,0,.364.6,2.427,2.427,0,0,0,.466.173V13.966a1.436,1.436,0,0,0-.461.189A.775.775,0,0,0,13.569,14.837ZM15,10.44c-2.983,0-5.4,2.687-5.4,6s2.417,6,5.4,6,5.4-2.687,5.4-6S17.983,10.44,15,10.44Zm2.312,9.392a3.559,3.559,0,0,1-1.712.641v.766H14.4v-.78a3.086,3.086,0,0,1-1.553-.5A2.232,2.232,0,0,1,12,18.24h1.493c.049,0,.143.481.285.65s.356.195.622.269V17.116a4.788,4.788,0,0,1-1.522-.546,1.825,1.825,0,0,1-.757-1.62,2.15,2.15,0,0,1,.74-1.67,2.743,2.743,0,0,1,1.538-.628V11.64h1.2v1.044a2.945,2.945,0,0,1,1.38.646,1.964,1.964,0,0,1,.987,1.91h-1.5a1.121,1.121,0,0,0-.7-1.049,1.222,1.222,0,0,1-.16-.124v1.886l.541.1a3.927,3.927,0,0,1,1.394.543,1.8,1.8,0,0,1,.619,1.528,2.2,2.2,0,0,1-.842,1.7Z" transform="translate(0 -8.64)" fill="#4bbf4f"/>
</svg>
