<svg xmlns="http://www.w3.org/2000/svg" width="27.704" height="30" viewBox="0 0 27.704 30">
  <g id="Icon" transform="translate(-1237 -1196)">
    <path id="Path_14" data-name="Path 14" d="M971.3,293.012a4.441,4.441,0,0,0-2.843-1.271,1.79,1.79,0,0,0,.094-.572,1.76,1.76,0,0,0-1.744-1.771,4.291,4.291,0,0,0-1.515.446v-1.789a.8.8,0,0,0-.8-.8H963a4.289,4.289,0,0,0,.446-1.515,1.771,1.771,0,0,0-3.543,0,4.288,4.288,0,0,0,.446,1.515h-1.495a.8.8,0,0,0-.8.8v1.582a.8.8,0,0,0,1.045.757,1.846,1.846,0,0,1,.494-.12.895.895,0,0,1,0,1.789,1.824,1.824,0,0,1-.494-.119.8.8,0,0,0-1.045.757v1.582a.8.8,0,0,0,.8.8h1.495a4.288,4.288,0,0,0-.446,1.515,1.771,1.771,0,0,0,3.543,0,4.286,4.286,0,0,0-.446-1.515H964.5a.8.8,0,0,0,.8-.8v-1.789a4.288,4.288,0,0,0,1.515.446,1.717,1.717,0,0,0,1.066-.371c2.113.127,3.974.736,3.974,5.668a24.349,24.349,0,0,1-1.754,8.911.438.438,0,0,0,.232.575.433.433,0,0,0,.171.035.439.439,0,0,0,.4-.268,25.278,25.278,0,0,0,1.824-9.254c0-2.488-.466-4.2-1.424-5.225Zm-6.266-1.587a.438.438,0,0,0-.618.4V294.2h-2.082a.439.439,0,0,0-.4.619,5.989,5.989,0,0,1,.637,1.774.894.894,0,0,1-1.788,0,5.984,5.984,0,0,1,.637-1.774.439.439,0,0,0-.4-.619h-2.082V292.81a2.325,2.325,0,0,0,.662.13,1.771,1.771,0,0,0,0-3.542,2.327,2.327,0,0,0-.662.13v-1.391h2.082a.438.438,0,0,0,.4-.619,5.984,5.984,0,0,1-.637-1.774.894.894,0,0,1,1.788,0,5.989,5.989,0,0,1-.637,1.774.438.438,0,0,0,.4.619h2.082v2.376a.438.438,0,0,0,.618.4,6.009,6.009,0,0,1,1.773-.638.895.895,0,0,1,0,1.789,5.988,5.988,0,0,1-1.773-.637Zm0,0" transform="translate(291.982 912)" fill="#e0474e"/>
    <path id="Path_15" data-name="Path 15" d="M961.089,313.893a.439.439,0,0,0-.605.134c-.539.848-1.389,1.859-2.374,1.859-1.784,0-3.724-3.431-4.612-8.158a.439.439,0,0,0-.431-.358h-5.785a.439.439,0,0,0-.431.358,24.693,24.693,0,0,1-.575,2.4l-1.978-.826a.8.8,0,0,0-1.04,1.041l1.463,3.5c-.586.969-1.462,2.035-2.482,2.035-1.189,0-2.452-1.484-3.466-4.07a24.478,24.478,0,0,1-1.574-8.47c0-2.473.473-4.066,1.445-4.87.832-.688,1.992-.826,3.595-.826,2.378,0,4.244.241,4.839,3.272a.438.438,0,0,0,.43.353h1.979a.438.438,0,1,0,0-.877h-1.626a4.3,4.3,0,0,0-2.088-3.012,7.444,7.444,0,0,0-3.534-.613c-3.118,0-5.917.5-5.917,6.572a25.4,25.4,0,0,0,1.635,8.79c1.168,2.984,2.689,4.627,4.282,4.627a3.747,3.747,0,0,0,2.891-1.933l1.582,3.79a.788.788,0,0,0,.707.488h.029a.786.786,0,0,0,.709-.439l.77-1.537,1.357,1.356a.785.785,0,0,0,1.11,0l1.046-1.046a.785.785,0,0,0,0-1.111l-1.357-1.356,1.538-.77a.795.795,0,0,0-.05-1.445l-5.481-2.288c.213-.715.4-1.46.553-2.225h5.063a20.437,20.437,0,0,0,1.963,5.7c1.023,1.843,2.213,2.817,3.441,2.817,1.094,0,2.171-.783,3.113-2.264a.438.438,0,0,0-.134-.605Zm-9.332,2.994-.917.917-1.5-1.5.306-.611.611-.306Zm-1.615-2.419h0l-1.016.509a.438.438,0,0,0-.2.2l-1.476,2.946-3.309-7.927,7.926,3.309Zm0,0" transform="translate(300.677 906.89)" fill="#e0474e"/>
    <path id="Path_16" data-name="Path 16" d="M971.635,303.8a1.5,1.5,0,1,0,1.5,1.5,1.5,1.5,0,0,0-1.5-1.5Zm0,2.123a.623.623,0,1,1,.623-.623.624.624,0,0,1-.623.623Zm0,0" transform="translate(287.152 904.082)" fill="#e0474e"/>
    <path id="Path_17" data-name="Path 17" d="M971.635,311.923a1.5,1.5,0,1,0,1.5,1.5,1.5,1.5,0,0,0-1.5-1.5Zm0,2.124a.623.623,0,1,1,.623-.623.624.624,0,0,1-.623.623Zm0,0" transform="translate(287.152 900.831)" fill="#e0474e"/>
    <path id="Path_18" data-name="Path 18" d="M977.2,309.36a1.5,1.5,0,1,0-1.5,1.5,1.5,1.5,0,0,0,1.5-1.5Zm-2.124,0a.623.623,0,1,1,.623.623.624.624,0,0,1-.623-.623Zm0,0" transform="translate(285.527 902.456)" fill="#e0474e"/>
    <path id="Path_19" data-name="Path 19" d="M966.071,309.36a1.5,1.5,0,1,0,1.5-1.5,1.5,1.5,0,0,0-1.5,1.5Zm2.123,0a.623.623,0,1,1-.623-.623.624.624,0,0,1,.623.623Zm0,0" transform="translate(288.778 902.456)" fill="#e0474e"/>
    <path id="Path_20" data-name="Path 20" d="M946.325,308.163a.438.438,0,0,0,.341.808,1.354,1.354,0,0,0-.527-2.6H944.92V305.15a1.355,1.355,0,0,0-2.709,0v1.219h-1.219a1.354,1.354,0,1,0,0,2.708h1.219V310.3a1.355,1.355,0,0,0,2.709,0v-1.658a.439.439,0,0,0-.877,0V310.3a.477.477,0,1,1-.955,0v-1.658a.439.439,0,0,0-.439-.438h-1.658a.478.478,0,1,1,0-.955h1.658a.439.439,0,0,0,.439-.439V305.15a.477.477,0,1,1,.955,0v1.657a.438.438,0,0,0,.439.439h1.657a.478.478,0,0,1,.186.917Zm0,0" transform="translate(299.351 904.082)" fill="#e0474e"/>
  </g>
</svg>
