<svg xmlns="http://www.w3.org/2000/svg" width="30.558" height="30" viewBox="0 0 30.558 30">
  <path id="Icon_simple-microsoftexcel" data-name="Icon simple-microsoftexcel" d="M29.989,4H19.752V5.894h3.018v3H19.752v.955h3.018v3H19.752v.982h3.018v2.838H19.752V17.8h3.018v2.844H19.752v1.137h3.018v2.861H19.752v2.087H29.989c.162-.048.3-.239.4-.57a2.792,2.792,0,0,0,.164-.81V4.346c0-.163-.056-.261-.164-.3A1.4,1.4,0,0,0,29.989,4ZM28.661,24.643H23.75V21.785h4.911v2.858Zm0-4H23.75V17.8h4.911Zm0-3.983H23.75V13.84h4.911v2.825Zm0-3.82H23.75v-3h4.911v3h0Zm0-3.971H23.75V5.9h4.911V8.874ZM0,3.527V27.21l18.029,3.118v-30L0,3.537ZM10.686,21.443q-.1-.279-.965-2.372c-.572-1.4-.917-2.208-1.017-2.44H8.672l-1.934,4.6-2.585-.174,3.066-5.73L4.412,9.6l2.636-.139,1.742,4.483h.034l1.967-4.687,2.723-.172-3.243,6.2,3.342,6.325-2.927-.172Z" transform="translate(0 -0.328)" fill="#3597c2"/>
</svg>
