<svg xmlns="http://www.w3.org/2000/svg" width="29.967" height="30" viewBox="0 0 29.967 30">
  <g id="Icon" transform="translate(-635 -1196)">
    <path id="Path_9" data-name="Path 9" d="M673.775,265a6.717,6.717,0,0,0-.013-2.551l2.29-5.526a.04.04,0,0,0,0-.011,9.384,9.384,0,0,1,1.608-2.791.748.748,0,0,0,.184-.683l-.939-4.055a.508.508,0,0,0-.05-.121c0-.007-.006-.016-.01-.023s-.022-.024-.032-.037a.27.27,0,0,0-.125-.115.512.512,0,0,0-.077-.047.5.5,0,0,0-.117-.029.335.335,0,0,1-.033-.008.5.5,0,0,0-.276.061c-.007,0-.016.005-.023.01h-.005l-3.53,2.2a.746.746,0,0,0-.353.616,9.388,9.388,0,0,1-.841,3.116v.005l-1.145,2.767a6.714,6.714,0,0,0-1.786-.646,27.063,27.063,0,0,0,.259-4.916A5.458,5.458,0,0,0,670,248.211c-.313-2.914-2.946-5.018-3.059-5.107a.5.5,0,0,0-.793.521c.258.967.035,1.988-1.867,4.086a2.926,2.926,0,0,0-.685,3.189,3.869,3.869,0,0,0,.712,1.15c-.121.773-.216,1.5-.281,2.216a24.982,24.982,0,0,0-.087,3.546,6.813,6.813,0,0,0-1.245.868l-2.425-10.37c0-.011-.01-.018-.013-.028a.454.454,0,0,0-.035-.1l-2.477-4.574a1.155,1.155,0,0,0-2.169.508l-.188,5.2a.5.5,0,0,0,.013.112v.022l2.474,10.559a5.621,5.621,0,0,0-1.156.173L654,253.609a1.01,1.01,0,0,0-1.3-.534l-4.16,1.721a1,1,0,0,0-.541,1.307l3.691,8.9a4,4,0,0,0,.206,7.99h22a4,4,0,0,0-.116-8Zm-.51-12.942,2.1-1.308-.742,1.792a.5.5,0,1,0,.924.383l.742-1.792.555,2.407a9.879,9.879,0,0,0-1.45,2.393,2.058,2.058,0,0,1-2.8-1.156,9.844,9.844,0,0,0,.67-2.719Zm-1.15,3.926a3.039,3.039,0,0,0,1.246.907,3.16,3.16,0,0,0,1.224.258,2.688,2.688,0,0,0,.3-.018l-1.6,3.85a6.789,6.789,0,0,0-2.147-2.654Zm-6.85-3.571,2.512.154c.016.467.01.95-.005,1.441a10.517,10.517,0,0,1-2.5-.121c-.063-.01-.125-.016-.187-.025.05-.471.111-.947.184-1.448Zm-.238-4.026a7.522,7.522,0,0,0,2.176-3.65,6.685,6.685,0,0,1,1.8,3.584,4.478,4.478,0,0,1-1.012,3.256l-2.93-.18a2.085,2.085,0,0,1-.038-3.01Zm-.038,6.471.145.019a14.291,14.291,0,0,0,1.946.166c.207,0,.425-.017.644-.034-.046.643-.12,1.315-.215,2.01-.124-.007-.244-.019-.368-.019a6.7,6.7,0,0,0-2.216.382,23.959,23.959,0,0,1,.063-2.524Zm-3.867,5.847-1.431-6.094a.5.5,0,0,0-.973.228L660,260.32a5.654,5.654,0,0,0-1.09-.271l-2.195-9.365a2.377,2.377,0,0,0,.979.213c.031,0,.065,0,.1-.007l.353,1.51a.5.5,0,1,0,.973-.228l-.354-1.51a2.366,2.366,0,0,0,.874-.665l2.231,9.539a6.688,6.688,0,0,0-.75,1.165Zm-3.055-10.85a1.66,1.66,0,0,1-1.67-.668l.064-1.761a2.93,2.93,0,0,0,.527.05,2.226,2.226,0,0,0,.508-.056,2.552,2.552,0,0,0,.927-.461l.842,1.554a1.657,1.657,0,0,1-1.2,1.344ZM656.7,244.01a.156.156,0,0,1,.172.077l1.072,1.983a1.413,1.413,0,0,1-1.445.338l.081-2.253a.156.156,0,0,1,.121-.145ZM653.078,254l.382.923-1.85.766a.5.5,0,1,0,.384.923l1.85-.766.383.924-.926.383a.5.5,0,0,0,.192.962.51.51,0,0,0,.191-.038l.925-.383.383.924-1.852.767a.5.5,0,0,0,.192.962.508.508,0,0,0,.191-.038l1.85-.766.405.977a5.8,5.8,0,0,0-3.238,3.94l-3.624-8.738Zm20.813,18h-22a3,3,0,0,1,0-6,2.933,2.933,0,0,1,.856.124.5.5,0,0,0,.644-.47,4.75,4.75,0,0,1,7.6-3.7.5.5,0,0,0,.767-.225,5.751,5.751,0,0,1,10.881,3.712.5.5,0,0,0,.585.636,3.083,3.083,0,0,1,.667-.073,3,3,0,0,1,0,6Zm0,0" transform="translate(-12.897 953.004)" fill="#fff"/>
    <path id="Path_10" data-name="Path 10" d="M679.793,253.731a.5.5,0,0,0,.4-.2,3.75,3.75,0,0,0,.665-2.944.5.5,0,1,0-.966.257,2.776,2.776,0,0,1-.5,2.083.5.5,0,0,0,.4.8Zm0,0" transform="translate(-25.457 950.12)" fill="#fff"/>
    <path id="Path_11" data-name="Path 11" d="M674.312,279.8c-.349,0-.694.009-1.008.027a20.111,20.111,0,0,0-3.672-.09c-1.246.081-1.764.255-1.2.406a2.131,2.131,0,0,0,.432.033c.063,0,.126,0,.185,0a1.326,1.326,0,0,0,.252-.029c.047-.013.046-.028,0-.041-.1-.027-.155-.056-.155-.086a4.309,4.309,0,0,1,1.881-.215,8.819,8.819,0,0,1,1.7.123l.033.005.025.005.03,0,.073.007.076.005.085,0,.088,0c.061,0,.122,0,.18,0h.037l.043,0,.05,0c.247-.023.555-.035.872-.035a6.637,6.637,0,0,1,1.279.094,2.84,2.84,0,0,0,.623.027c.236-.012.341-.044.233-.071a11.044,11.044,0,0,0-2.135-.156Zm0,0" transform="translate(-21.02 938.323)" fill="#fff"/>
    <path id="Path_12" data-name="Path 12" d="M661.4,275.52A2.714,2.714,0,0,0,659.554,278a.5.5,0,1,0,1,0,1.72,1.72,0,0,1,1.161-1.527.5.5,0,1,0-.319-.95Zm0,0" transform="translate(-17.56 940.005)" fill="#fff"/>
    <path id="Path_13" data-name="Path 13" d="M674.1,272.648a.461.461,0,0,0,.122.015.5.5,0,0,0,.484-.379,2.132,2.132,0,0,1,2.018-1.621.5.5,0,1,0,0-1,3.114,3.114,0,0,0-2.985,2.378.5.5,0,0,0,.364.606Zm0,0" transform="translate(-23.226 942.336)" fill="#fff"/>
  </g>
</svg>
