<svg id="_15793660381605806466_1_" data-name="15793660381605806466 (1)" xmlns="http://www.w3.org/2000/svg" width="29.89" height="33" viewBox="0 0 29.89 33">
  <path id="Path_23464" data-name="Path 23464" d="M12.105,7.72c-2.717,0-3.551.027-6.295.027a4.535,4.535,0,0,0-.888.081,3.541,3.541,0,0,0-.807.242,4.059,4.059,0,0,0-.753.4,4.406,4.406,0,0,0-.673.565,4.406,4.406,0,0,0-.565.673,4.059,4.059,0,0,0-.4.753,4.6,4.6,0,0,0-.242.807,4.953,4.953,0,0,0-.081.888v8.958A4.535,4.535,0,0,0,1.48,22a3.541,3.541,0,0,0,.242.807,4.059,4.059,0,0,0,.4.753,4.406,4.406,0,0,0,.565.673h0a4.6,4.6,0,0,0,.7.565,4.059,4.059,0,0,0,.753.4,4.6,4.6,0,0,0,.807.242,4.953,4.953,0,0,0,.888.081H9.227a.542.542,0,0,1,.3.081,1.478,1.478,0,0,1,.242.188h0c.269.35.538.7.834,1.022a10.365,10.365,0,0,0,.942.942,10.787,10.787,0,0,0,1.022.861c.35.269.726.538,1.076.78a11.387,11.387,0,0,0,1.13.673c.377.215.78.4,1.184.592a.12.12,0,0,0,.135,0,.145.145,0,0,0,.054-.215c-.081-.135-.135-.242-.215-.377-.054-.135-.135-.242-.188-.377h0c-.108-.269-.215-.511-.323-.78a7.6,7.6,0,0,1-.3-.834c-.081-.269-.188-.538-.269-.807s-.161-.538-.242-.834a.745.745,0,0,1-.027-.242.773.773,0,0,1,.188-.484h0a.674.674,0,0,1,.484-.215h3.954a4.534,4.534,0,0,0,.888-.081,4.6,4.6,0,0,0,.807-.242h0a3.84,3.84,0,0,0,.726-.4,3.555,3.555,0,0,0,.7-.592h0a4.406,4.406,0,0,0,.565-.673,4.059,4.059,0,0,0,.4-.753,4.6,4.6,0,0,0,.242-.807,4.953,4.953,0,0,0,.081-.888V19.234a.725.725,0,0,1,1.4-.269v2.1a5.445,5.445,0,0,1-.108,1.157,8.534,8.534,0,0,1-.323,1.1,5.108,5.108,0,0,1-.538,1,4.707,4.707,0,0,1-.753.888,5.736,5.736,0,0,1-.888.753,8.7,8.7,0,0,1-.968.538h0a8.172,8.172,0,0,1-1.076.323,5.445,5.445,0,0,1-1.157.108H16.355a.153.153,0,0,0-.108.188h0c.054.161.108.35.161.538h0c.081.242.188.511.3.753s.188.484.3.7v.027c.108.242.215.457.35.7.135.215.3.457.457.673s.35.43.565.673h0a5.377,5.377,0,0,0,.7.646.835.835,0,0,1,.242.484.806.806,0,0,1-.161.484.5.5,0,0,1-.323.188.886.886,0,0,1-.377,0c-.511-.135-1.022-.3-1.506-.457a13.093,13.093,0,0,1-1.426-.565c-.457-.188-.915-.43-1.345-.646-.43-.242-.861-.484-1.264-.753h0c-.4-.269-.807-.538-1.184-.834s-.753-.619-1.1-.942h0a8.988,8.988,0,0,1-.861-.888c-.269-.3-.565-.619-.807-.942a.148.148,0,0,0-.135-.081H5.81a5.445,5.445,0,0,1-1.157-.108,7.109,7.109,0,0,1-1.076-.323h0a5.108,5.108,0,0,1-1-.538,5.806,5.806,0,0,1-.888-.726,7.345,7.345,0,0,1-.753-.888,5.108,5.108,0,0,1-.538-1A7.109,7.109,0,0,1,.081,22.22,6.839,6.839,0,0,1,0,21.117V12.105a5.445,5.445,0,0,1,.108-1.157A7.109,7.109,0,0,1,.43,9.872a5.108,5.108,0,0,1,.538-1,4.707,4.707,0,0,1,.753-.888,7.345,7.345,0,0,1,.888-.753A8.7,8.7,0,0,1,3.578,6.7h0a7.448,7.448,0,0,1,1.1-.323,5.445,5.445,0,0,1,1.157-.108h6.591a.753.753,0,0,1-.323,1.453Zm3.524,1.4a2,2,0,0,0-.135,1l.081.484c.054.161.108.35.161.511l.242.484a2.227,2.227,0,0,0,.3.4,1.858,1.858,0,0,0,.915.619c.619.188,1.695-.35,2.26-.538h0a.438.438,0,0,1,.323.027.528.528,0,0,1,.242.242c0,.027,0,.027.027.054.027.108.081.215.108.323a20.4,20.4,0,0,0,.807,2.206c.027.054.054.135.081.188v.027a5.692,5.692,0,0,0,.3.565,1.98,1.98,0,0,0,.3.43.332.332,0,0,0,.215.108.63.63,0,0,0,.35-.188,1.623,1.623,0,0,1,.215-.215h0l.242-.242a9.159,9.159,0,0,0,.888-.888l-.081-.027c-.915-.3-.861-.78-.807-1.211h0a.758.758,0,0,0,0-.35h0c0-.027-.027,0-.081-.054-.027-.027-.054-.027-.081-.054a1.207,1.207,0,0,1-.3-.35,1.574,1.574,0,0,1-.108-1,2.907,2.907,0,0,1,.135-.565h0a.434.434,0,0,1,.108-.188.541.541,0,0,1,.215-.108h0a5.8,5.8,0,0,1,3.766.242c.135.054.3.108.43.161a9.462,9.462,0,0,1-1.1-1.372,15.411,15.411,0,0,1-1.453-2.609,16.942,16.942,0,0,1-1-2.744,12.127,12.127,0,0,1-.35-1.775,12.921,12.921,0,0,1-1.775,2.394c-.753.7-5.138,3.336-5.434,4.008ZM26.873,7.048A2.716,2.716,0,0,1,26.6,8.285a1.949,1.949,0,0,1-.457.673,10.836,10.836,0,0,0,1.157,1.48,6.261,6.261,0,0,0,1.237,1.049h.081a.1.1,0,0,0,.081-.027.094.094,0,0,0,.054-.027.614.614,0,0,0,.161-.323A1.566,1.566,0,0,0,29,10.6a7.289,7.289,0,0,0-.3-2.125,18.917,18.917,0,0,0-1.049-2.8A19.594,19.594,0,0,0,26.2,3.094a9.245,9.245,0,0,0-1.453-1.749A2.385,2.385,0,0,0,24.264,1a.651.651,0,0,0-.35-.108h-.027A.371.371,0,0,0,23.807,1h0a3.951,3.951,0,0,0-.054,1.829,13.61,13.61,0,0,0,.673,2.582.668.668,0,0,1,.242-.027,2.5,2.5,0,0,1,1.049.135,1.716,1.716,0,0,1,.968.78,2.355,2.355,0,0,1,.188.753ZM28.514,12.4h-.108a.162.162,0,0,1-.108-.027l-.135-.027c-.323-.027-.673-.108-1.022-.161h-.027a5.684,5.684,0,0,1-1.022-.323,4.662,4.662,0,0,0-3.094-.3.592.592,0,0,0-.027.215.9.9,0,0,0,0,.269c0,.054.027.108.027.161a.094.094,0,0,0,.027.054l.027.027a.931.931,0,0,1,.4.457,1.351,1.351,0,0,1,.054.565c-.027.188-.027.377.188.457h0a.979.979,0,0,1,.7.538c.027.027.027.081.054.108h0v.108h0c-.054.511-.807,1.237-1.237,1.641L23,16.382l-.027.027-.161.161v.108a1.434,1.434,0,0,1-1,.484,1.177,1.177,0,0,1-.834-.4,3.35,3.35,0,0,1-.43-.592c-.108-.215-.215-.43-.323-.673-.027-.054-.054-.135-.081-.188a17.341,17.341,0,0,1-.807-2.206,3.38,3.38,0,0,1-2.394.4,3.1,3.1,0,0,1-1.318-.888h0a3.844,3.844,0,0,1-.377-.538,4.049,4.049,0,0,1-.3-.592,5.634,5.634,0,0,1-.215-.619,2.7,2.7,0,0,1-.108-.646,2.965,2.965,0,0,1,.188-1.48c.565-1.237,4.277-2.851,5.73-4.465A14.474,14.474,0,0,0,22.489,1.4V1.372A9.125,9.125,0,0,1,23.107.35l.161-.161a1.139,1.139,0,0,1,.188-.135A.633.633,0,0,0,23.672,0h.242a2.315,2.315,0,0,1,.673.188,2.735,2.735,0,0,1,.7.484A10.779,10.779,0,0,1,26.9,2.556a18.773,18.773,0,0,1,1.533,2.717,20.415,20.415,0,0,1,1.13,2.986,8.008,8.008,0,0,1,.323,2.367h0a3.334,3.334,0,0,1-.161.78,1.759,1.759,0,0,1-.35.619l-.027.027-.027.054a2.006,2.006,0,0,1-.323.188h0a.7.7,0,0,1-.3.081H28.6l-.081.027ZM17.674,21.547a.646.646,0,1,0,0-1.291l-6.913-.108-1.318-.081a.66.66,0,0,0-.081,1.318l1.318.081c.027-.027,6.4.054,6.994.081ZM15.6,17.458a.646.646,0,0,0,0-1.291H6.268a.646.646,0,0,0,0,1.291Zm-2.905-3.9a.646.646,0,1,0,0-1.291H6.268a.646.646,0,0,0,0,1.291Z" transform="translate(0)" fill="#dc451e"/>
</svg>
