<svg xmlns="http://www.w3.org/2000/svg" width="29.895" height="30" viewBox="0 0 29.895 30">
  <g id="_3431101621639547059" data-name="3431101621639547059" transform="translate(-2 -2)">
    <path id="Path_23458" data-name="Path 23458" d="M31.412,12.517l1.345.367c.032.085.067.169.106.253l-.7,1.213a.5.5,0,0,0,.044.56,5.6,5.6,0,0,0,.4.451,5.522,5.522,0,0,0,.452.4.5.5,0,0,0,.56.044l1.213-.7c.084.038.168.074.253.106l.367,1.345a.5.5,0,0,0,.426.365,5.506,5.506,0,0,0,1.211,0,.5.5,0,0,0,.426-.365l.367-1.345c.085-.032.169-.068.253-.106l1.213.7a.5.5,0,0,0,.56-.044,5.522,5.522,0,0,0,.452-.4,5.36,5.36,0,0,0,.4-.452.5.5,0,0,0,.044-.559l-.7-1.213c.038-.084.074-.168.106-.253l1.345-.367a.5.5,0,0,0,.365-.426,5.535,5.535,0,0,0,0-1.212.5.5,0,0,0-.365-.426l-1.345-.367c-.032-.085-.068-.169-.106-.253l.7-1.213a.5.5,0,0,0-.044-.559,5.449,5.449,0,0,0-.4-.452,5.607,5.607,0,0,0-.452-.4.5.5,0,0,0-.56-.044l-1.211.7c-.084-.039-.168-.074-.253-.106l-.366-1.345a.5.5,0,0,0-.427-.365,5.526,5.526,0,0,0-1.211,0,.5.5,0,0,0-.426.365l-.367,1.345c-.085.032-.169.068-.253.106l-1.213-.7a.5.5,0,0,0-.56.044,5.522,5.522,0,0,0-.452.4,5.6,5.6,0,0,0-.4.451.5.5,0,0,0-.044.56l.7,1.213c-.039.084-.074.168-.106.253l-1.345.366a.5.5,0,0,0-.365.426,5.531,5.531,0,0,0,0,1.211A.5.5,0,0,0,31.412,12.517Zm.6-1.2,1.263-.343a.5.5,0,0,0,.349-.34,2.967,2.967,0,0,1,.244-.582.5.5,0,0,0,0-.486l-.653-1.14c.036-.039.073-.078.112-.116s.077-.075.116-.112l1.14.653a.5.5,0,0,0,.486.005,2.95,2.95,0,0,1,.582-.243.5.5,0,0,0,.34-.349L36.33,7c.109,0,.217,0,.325,0L37,8.268a.5.5,0,0,0,.341.349,2.954,2.954,0,0,1,.583.243.5.5,0,0,0,.486-.005L39.548,8.2c.039.036.078.074.116.112s.075.077.112.116l-.653,1.14a.5.5,0,0,0-.005.486,2.979,2.979,0,0,1,.243.582.5.5,0,0,0,.349.34l1.264.344q.006.162,0,.325l-1.264.343a.5.5,0,0,0-.349.34,2.98,2.98,0,0,1-.243.582.5.5,0,0,0,.005.486l.653,1.14c-.036.039-.073.078-.111.116s-.077.075-.117.112l-1.139-.653a.5.5,0,0,0-.486-.005,2.971,2.971,0,0,1-.583.243A.5.5,0,0,0,37,14.7l-.343,1.263q-.163.006-.325,0L35.987,14.7a.5.5,0,0,0-.34-.349,2.95,2.95,0,0,1-.582-.243.5.5,0,0,0-.486.005l-1.14.653c-.039-.036-.078-.073-.116-.112s-.075-.077-.112-.116l.653-1.14a.5.5,0,0,0,0-.486,2.967,2.967,0,0,1-.245-.58.5.5,0,0,0-.349-.34l-1.263-.344q0-.163,0-.326Z" transform="translate(-14.558 -2.012)" fill="#b43ad8"/>
    <path id="Path_23459" data-name="Path 23459" d="M40,16.986a1.993,1.993,0,1,0-1.993-1.993A1.993,1.993,0,0,0,40,16.986ZM40,14a1,1,0,1,1-1,1A1,1,0,0,1,40,14Z" transform="translate(-18.066 -5.519)" fill="#b43ad8"/>
    <rect id="Rectangle_8606" data-name="Rectangle 8606" width="0.996" height="0.996" transform="translate(26.912 3.993)" fill="#b43ad8"/>
    <rect id="Rectangle_8607" data-name="Rectangle 8607" width="0.996" height="0.996" transform="translate(28.905 3.993)" fill="#b43ad8"/>
    <path id="Path_23460" data-name="Path 23460" d="M2.5,58.488H14.954a.5.5,0,0,0,.5-.5V55.5a.5.5,0,0,0-.5-.5H2.5a.5.5,0,0,0-.5.5v2.491A.5.5,0,0,0,2.5,58.488ZM3,56h11.46v1.495H3Z" transform="translate(0 -26.593)" fill="#b43ad8"/>
    <path id="Path_23461" data-name="Path 23461" d="M32.41,2H13.477a.5.5,0,0,0-.5.5V13.771a5.974,5.974,0,1,0,2.989,5.17h5.481V21.93H17.961a.5.5,0,0,0-.5.5v2.491a.5.5,0,0,0,.5.5h9.965a.5.5,0,0,0,.5-.5V22.428a.5.5,0,0,0-.5-.5H24.438V18.94H32.41a.5.5,0,0,0,.5-.5V2.5A.5.5,0,0,0,32.41,2ZM9.989,23.923a4.982,4.982,0,1,1,3.72-8.286c.046.052.095.1.139.156s.071.1.107.142c.068.091.137.181.2.278.016.025.031.05.047.076.075.121.149.244.214.372.011.02.02.042.03.062.061.123.118.246.168.372.009.023.017.047.026.07.05.124.092.249.129.377.008.027.014.055.021.083.035.126.067.253.091.382,0,.023.006.046.01.069.024.136.045.272.057.41h0c.013.149.023.3.023.453A4.988,4.988,0,0,1,9.989,23.923Zm17.439-1v1.495H18.459V22.926Zm-4.982-1V18.94h1V21.93Zm9.467-3.986H15.882c0-.024-.011-.05-.015-.072-.019-.108-.043-.215-.069-.321-.016-.07-.034-.14-.054-.209-.03-.11-.063-.218-.1-.326-.008-.022-.013-.046-.021-.069H31.912Zm0-1.993H15.163c-.035-.061-.075-.118-.112-.177s-.083-.139-.129-.205c-.1-.149-.207-.29-.319-.427l-.01-.011c-.114-.139-.236-.271-.362-.4l-.05-.05c-.068-.067-.134-.135-.2-.2V3H31.912Z" transform="translate(-1.013)" fill="#b43ad8"/>
    <path id="Path_23462" data-name="Path 23462" d="M13.993,32a1.993,1.993,0,1,0,1.993,1.993A1.993,1.993,0,0,0,13.993,32Zm0,2.989a1,1,0,1,1,1-1A1,1,0,0,1,13.993,34.989Z" transform="translate(-5.018 -15.053)" fill="#b43ad8"/>
    <rect id="Rectangle_8608" data-name="Rectangle 8608" width="0.996" height="3.488" transform="translate(2.996 23.923)" fill="#b43ad8"/>
    <rect id="Rectangle_8609" data-name="Rectangle 8609" width="0.996" height="3.488" transform="translate(13.46 23.923)" fill="#b43ad8"/>
    <rect id="Rectangle_8610" data-name="Rectangle 8610" width="0.996" height="1.993" transform="translate(11.467 25.418)" fill="#b43ad8"/>
    <rect id="Rectangle_8611" data-name="Rectangle 8611" width="0.996" height="1.993" transform="translate(4.989 25.418)" fill="#b43ad8"/>
    <rect id="Rectangle_8612" data-name="Rectangle 8612" width="0.996" height="0.996" transform="translate(6.982 26.414)" fill="#b43ad8"/>
    <rect id="Rectangle_8613" data-name="Rectangle 8613" width="0.996" height="0.996" transform="translate(9.474 26.414)" fill="#b43ad8"/>
    <path id="Path_23463" data-name="Path 23463" d="M54.965,51.358a1.937,1.937,0,0,0-.179-.4c-.005-.009-.012-.018-.018-.028a1.84,1.84,0,0,0-.267-.342,1.86,1.86,0,0,0-.34-.266l-.03-.02a1.97,1.97,0,0,0-.4-.178l-.014,0a3.139,3.139,0,0,0-2.509.44l-.019.011a4.742,4.742,0,0,0-.476.332c-.009.007-.018.012-.027.019h0c-.012.01-.024.022-.036.032-.128.105-.255.215-.377.337-1.383,1.383-1.694,3.239-.7,4.228a2.055,2.055,0,0,0,1.491.577,2.792,2.792,0,0,0,.338-.021A4,4,0,0,0,53.36,55.2a5.022,5.022,0,0,0,.436-.384l.006-.007c.119-.12.228-.244.331-.37.01-.012.022-.023.032-.036h0c.007-.008.012-.018.018-.026a4.685,4.685,0,0,0,.334-.479l.009-.016a3.134,3.134,0,0,0,.44-2.513Zm-3.07-.038c.044-.023.088-.047.132-.067s.1-.043.149-.063.088-.036.132-.05.093-.03.139-.043.094-.026.14-.036.083-.017.124-.024.1-.014.149-.018.07-.006.1-.007c.053,0,.1,0,.154,0a.638.638,0,0,1,.088.007,1.168,1.168,0,0,1,.13.027L52.388,52l-.613-.613c.04-.025.08-.043.12-.064Zm1.2,2.79c-.955.955-2.246,1.277-2.819.7a.98.98,0,0,1-.266-.548,1.533,1.533,0,0,1-.014-.345A.644.644,0,0,1,50,53.85a2.438,2.438,0,0,1,.18-.7A3.675,3.675,0,0,1,50.977,52h0l2.114,2.114Zm.979-1.89a2.1,2.1,0,0,1-.047.3c-.007.029-.015.059-.023.089a2.714,2.714,0,0,1-.1.3c-.008.021-.015.042-.024.063a3.357,3.357,0,0,1-.173.343l-.611-.611.947-.947c0,.01.007.02.01.031.005.028.013.055.017.084a1.57,1.57,0,0,1,.013.3c0,.013-.006.03-.007.044Z" transform="translate(-23.577 -24.097)" fill="#b43ad8"/>
  </g>
</svg>
